<?xml version="1.0" encoding="UTF-8"?>
<svg fill="#FFFFFF" id="Capa_1" data-name="Capa 1" xmlns="http://www.w3.org/2000/svg" viewBox="0 0 500 140.53">
  <defs></defs>
  <path fill="#FFFFFF" class="cls-1" d="M101.36,92.28V26.23c0-6.08,4.93-11.01,11.01-11.01h0c6.08,0,11.01,4.93,11.01,11.01v66.05c0,6.08-4.93,11.01-11.01,11.01h0c-6.08,0-11.01,4.93-11.01,11.01h0c0,6.08-4.93,11.01-11.01,11.01h0c-6.08,0-11.01-4.93-11.01-11.01h0c0-6.08-4.93-11.01-11.01-11.01h0c-6.08,0-11.01,4.93-11.01,11.01h0c0,6.08-4.93,11.01-11.01,11.01h0c-6.08,0-11.01-4.93-11.01-11.01h0c0-6.08-4.93-11.01-11.01-11.01h0c-6.08,0-11.01-4.93-11.01-11.01V26.23c0-6.08,4.93-11.01,11.01-11.01h0c6.08,0,11.01,4.93,11.01,11.01v66.05c0,6.08,4.93,11.01,11.01,11.01h0c6.08,0,11.01-4.93,11.01-11.01v-44.03c0-6.08,4.93-11.01,11.01-11.01h0c6.08,0,11.01,4.93,11.01,11.01v44.03c0,6.08,4.93,11.01,11.01,11.01h0c6.08,0,11.01-4.93,11.01-11.01Z"></path>
  <path fill="#FFFFFF" class="cls-1" d="M233.47,37.24h0c-6.08,0-11-4.93-11-11,0-6.08-4.93-11.01-11.01-11.01h-44.03c-6.08,0-11.01,4.93-11.01,11.01s-4.93,11-11,11h0c-6.08,0-11.01,4.93-11.01,11.01v44.03c0,6.08,4.93,11.01,11.01,11.01h0c6.08,0,11,4.93,11,11s4.93,11.01,11.01,11.01h44.03c6.08,0,11.01-4.93,11.01-11.01,0-6.08,4.93-11,11-11h0c6.08,0,11.01-4.93,11.01-11.01v-44.03c0-6.08-4.93-11.01-11.01-11.01ZM222.46,92.28c0,6.08-4.93,11.01-11.01,11.01h-44.03c-6.08,0-11.01-4.93-11.01-11.01v-44.03c0-6.08,4.93-11.01,11.01-11.01h44.03c6.08,0,11.01,4.93,11.01,11.01v44.03Z"></path>
  <path fill="#FFFFFF" class="cls-1" d="M475.69,37.24h0c-6.08,0-11-4.93-11-11,0-6.08-4.93-11.01-11.01-11.01h-44.03c-6.08,0-11.01,4.93-11.01,11.01s-4.93,11-11,11h0c-6.08,0-11.01,4.93-11.01,11.01v44.03c0,6.08,4.93,11.01,11.01,11.01h0c6.08,0,11,4.93,11,11s4.93,11.01,11.01,11.01h44.03c6.08,0,11.01-4.93,11.01-11.01,0-6.08,4.93-11,11-11h0c6.08,0,11.01-4.93,11.01-11.01v-44.03c0-6.08-4.93-11.01-11.01-11.01ZM464.69,92.28c0,6.08-4.93,11.01-11.01,11.01h-44.03c-6.08,0-11.01-4.93-11.01-11.01v-44.03c0-6.08,4.93-11.01,11.01-11.01h44.03c6.08,0,11.01,4.93,11.01,11.01v44.03Z"></path>
  <path fill="#FFFFFF" class="cls-1" d="M354.57,81.27h0c-6.08,0-11.01-4.93-11.01-11.01h0c0-6.08-4.93-11.01-11.01-11.01h-22.01c-6.08,0-11,4.93-11,11h0c0,6.09,4.93,11.01,11,11.01h22.01c6.08,0,11,4.93,11,11h0c0,6.08-4.93,11.01-11.01,11.01h-44.03c-6.08,0-11.01-4.93-11.01-11.01v-44.03c0-6.08,4.93-11.01,11.01-11.01h44.03c6.08,0,11-4.93,11-11h0c0-6.08-4.93-11.01-11.01-11.01h-43.99c-6.02,0-11.14,4.81-11.05,10.83s-4.87,11.18-11,11.18h0c-6.08,0-11.01,4.93-11.01,11.01v44.07c0,6.05,4.91,10.96,10.96,10.96h0c5.96,0,11.14,4.87,11.05,10.83s4.87,11.18,11.01,11.18h43.99c6.02,0,11.14-4.81,11.05-10.83s4.87-11.18,11-11.18h0c6.08,0,11.01-4.93,11.01-11.01h0c0-6.08-4.93-11-11-11Z"></path>
</svg>