<?xml version="1.0" encoding="UTF-8"?>
<svg fill="#004E52" id="Capa_1" data-name="Capa 1" xmlns="http://www.w3.org/2000/svg" viewBox="0 0 350.19 350.19">
  <defs></defs>
  <path fill="#004E52" class="cls-1" d="M340.26,75.99v165.18c0,18.24-14.79,33.03-33.03,33.03s-33.03,14.79-33.03,33.03-14.79,33.04-33.03,33.04-32.58-14.34-33.03-32.19v-1.27c0-.14,0-.29,0-.43-.45-17.85-15.07-32.18-33.03-32.18s-33.03,14.79-33.03,33.03-14.79,33.04-33.03,33.04-33.03-14.8-33.03-33.04-14.8-33.03-33.04-33.03-33.03-14.79-33.03-33.03V42.96c0-18.24,14.79-33.04,33.03-33.04s33.03,14.8,33.03,33.04v33.03h0v165.18c0,18.24,14.79,33.03,33.03,33.03s33.03-14.79,33.03-33.03V109.02c0-18.24,14.78-33.02,33.02-33.03h0c17.96,0,32.58,14.33,33.03,32.18v133.85h0c.45,17.85,15.07,32.18,33.03,32.18s33.03-14.79,33.03-33.03V75.99h-.02v-32.18c0-.14,0-.28,0-.42,0-.05,0-.09,0-.14v-.57s0-.09,0-.14c.22-18.05,14.92-32.62,33.02-32.62s32.58,14.34,33.03,32.19v33.88h.02Z"></path>
</svg>